PathFileType	4	(X/Y/Z)	C:/Users/beibeiliu/ov580/test_trc\sequence.10_training_dense_left.trc
DataRate	CameraRate	NumFrames	NumMarkers	Units	OrigDataRate	OrigDataStartFrame	OrigNumFrames
120	120	14	19	mm	120	54	80
Frame#	Time	ThumbCMC			ThumbMCP			ThumbIP			ThumbTip			IndexMCP			IndexPIP			IndexTip			MiddleMCP			MiddlePIP			MiddleTip			RingMCP			RingPIP			RingTip			PinkyMCP			PinkyPIP			PinkyTip			BackHand1			BackHand2			BackHand3	
		X0	Y0	Z0	X1	Y1	Z1	X2	Y2	Z2	X3	Y3	Z3	X4	Y4	Z4	X5	Y5	Z5	X6	Y6	Z6	X7	Y7	Z7	X8	Y8	Z8	X9	Y9	Z9	X10	Y10	Z10	X11	Y11	Z11	X12	Y12	Z12	X13	Y13	Z13	X14	Y14	Z14	X15	Y15	Z15	X16	Y16	Z16	X17	Y17	Z17	X18	Y18	Z18	
53	0.441667	-180.855	40.0064	126.725	-147.549	38.7407	109.446	-126.39	34.4621	89.4435	-120.283	15.928	74.8289	-181.729	25.6404	53.3895	-159.065	23.7241	31.7487	-133.58	19.7764	25.8943	-173.73	6.83265	46.6369	-143.184	2.90809	37.1235	-114.441	4.51852	55.3522	-175.256	-12.9397	54.0644	-150.703	-19.5613	40.9417	-122.301	-15.5179	38.7989	-177.553	-34.6309	69.851	-160.544	-42.2856	52.2602	-145.843	-52.0398	35.3962	-210.611	-13.9415	101.539	-219.538	-10.8959	126.893	-213.477	22.3821	106.841	
54	0.45	-201.417	37.1256	116.899	-172.243	44.4794	105.679	-150.628	46.608	84.2079	-137.559	30.9686	70.1872	-197.938	15.7145	48.8269	-175.108	19.2289	25.0354	-151.619	22.5455	19.1503	-183.715	-4.05071	46.8948	-153.732	7.065	35.3934	-127.382	21.4836	51.6485	-177.521	-22.1677	56.4134	-150.192	-18.8644	39.6002	-127.31	-4.3521	36.5162	-171.113	-38.2739	69.821	-154.381	-41.4633	55.214	-136.768	-44.8027	38.2912	-210.912	-25.4343	99.6875	-218.785	-24.3957	129.391	-225.193	7.70838	106.306	
55	0.458333	-220.065	23.7817	114.923	-193.93	41.3289	97.9233	-175.992	43.8509	79.1269	-156.929	37.8057	60.736	-212.831	-0.520976	48.8641	-193.911	6.54097	24.1772	-170.356	16.9031	13.2041	-194.451	-12.0676	45.5431	-168.727	4.27012	30.7773	-146.144	22.8276	44.2955	-184.953	-26.9821	56.9256	-156.895	-18.5019	36.4818	-138.51	-0.601021	31.3146	-170.551	-42.4771	73.512	-156.056	-41.0648	57.8446	-132.393	-43.6237	38.8098	-212.402	-34.2461	101.741	-221.683	-34.176	127.711	-236.991	-12.4467	108.078	
56	0.466667	-236.451	12.5571	110.933	-215.081	33.1901	93.3773	-198.757	40.0403	71.289	-180.471	34.4676	55.5853	-227.008	-15.2894	45.5426	-212.768	-7.02665	21.8004	-193.364	5.22185	8.23075	-204.452	-24.653	43.5752	-181.481	-5.5302	29.3876	-163.497	21.3036	41.3684	-191.902	-36.6847	57.84	-168.156	-25.2386	35.2605	-154.014	-1.79038	25.3634	-178.451	-45.1651	76.2055	-162.267	-45.1818	59.0274	-140.432	-46.0686	39.342	-213.066	-48.3198	100.845	-223.773	-47.4708	133.366	-243.505	-25.3123	105.774	
57	0.475	-247.82	-0.197126	114.487	-230.003	19.3047	93.4922	-213.559	24.5523	68.2166	-197.414	20.5568	52.9661	-238.071	-29.4175	44.189	-223.78	-23.785	21.2362	-206.69	-8.39005	5.23822	-214.829	-38.7033	44.5147	-197.362	-21.8486	27.5165	-180.688	12.6638	36.1945	-200.243	-47.6197	53.2214	-183.474	-36.8046	32.388	-169.998	-15.6251	22.526	-184.248	-54.1467	75.6932	-166.074	-54.3866	56.3775	-150.739	-55.6675	38.6558	-219.004	-55.6273	105.604	-231.608	-53.7284	132.457	-251.191	-39.7907	110.378	
58	0.483333	-257.813	-4.43606	114.988	-237.965	11.8299	92.2794	-226.162	18.5113	69.1821	-207.514	12.0797	49.1877	-247.32	-40.6771	50.0733	-235.033	-36.3594	24.2272	-215.158	-19.8148	4.23319	-223.878	-48.5489	49.369	-205.385	-27.7267	26.968	-192.564	3.70406	32.1871	-208.662	-57.2015	59.09	-191.155	-46.5457	34.0192	-180.328	-26.3333	21.1653	-190.468	-61.4717	76.8993	-177.394	-60.7048	57.7442	-159.496	-60.9601	36.0142	-228.415	-60.9382	104.829	-233.947	-59.1175	137.395	-256.497	-47.8936	112.192	
59	0.491667	-261.352	-6.43901	117.253	-241.558	9.34474	92.8301	-229.669	14.5912	68.9921	-211.35	6.69794	50.5214	-252.998	-43.8203	47.4347	-242.519	-36.823	21.3044	-224.016	-26.7234	7.81802	-226.91	-52.1037	47.9772	-213.314	-34.745	27.759	-196.868	-3.07994	33.1177	-211.461	-60.164	57.6089	-197.632	-48.4147	33.4421	-182.387	-25.8252	18.848	-195.287	-61.6755	79.4179	-177.921	-62.5003	55.563	-166.142	-61.3942	38.2095	-227.967	-64.95	112.443	-235.252	-62.7766	138.974	-262.955	-48.7441	113.931	
60	0.5	-263.764	-8.45795	116.994	-244.426	6.91546	92.924	-231.283	13.2161	64.2781	-215.681	4.87688	49.6706	-254.594	-45.7025	53.9866	-243.414	-42.4044	25.5576	-223.541	-26.0503	5.43498	-232.955	-52.0045	48.0573	-215.435	-36.6565	28.8022	-203.967	0.550943	30.2931	-213.735	-60.9874	58.8283	-197.356	-50.6189	34.7043	-188.6	-28.7299	19.7402	-197.85	-61.5728	77.1165	-180.884	-62.5031	58.296	-166.884	-64.6208	38.3062	-230.926	-64.549	107.478	-238.082	-61.0381	140.258	-258.776	-51.1889	115.767	
61	0.508333	-265.684	-7.95656	114.606	-247.383	10.1208	91.3715	-236.14	16.8097	66.5406	-218.538	9.62019	45.0519	-255.269	-46.5455	53.1815	-244.988	-41.8976	23.5547	-231.337	-24.7787	4.15926	-233.761	-50.2048	45.6195	-216.309	-31.264	26.7086	-206.892	1.8461	30.6354	-213.878	-59.8998	59.2117	-202.072	-49.0964	32.5266	-188.095	-25.0044	18.1659	-196.134	-62.5631	75.1499	-183.349	-61.3888	54.2653	-171.556	-59.6198	33.9207	-230.616	-64.0662	106.017	-237.876	-60.6402	135.525	-266.648	-50.3202	115.373	
62	0.516667	-267.853	-5.33973	115.674	-250.089	12.3613	88.4406	-239.856	18.4654	68.0499	-221.911	10.9493	45.5626	-259.299	-43.889	49.0784	-250.494	-39.4745	23.3233	-230.846	-21.435	4.46333	-237.898	-47.9526	46.6894	-222.406	-27.1219	24.2543	-207.953	2.68121	30.2413	-217.707	-57.4347	55.6918	-207.585	-47.7853	31.3887	-193.224	-21.5332	16.0222	-201.142	-59.659	74.3276	-186.406	-59.4241	53.688	-172.16	-59.2372	31.2926	-237.263	-61.4582	109.782	-242.267	-56.9184	135.535	-266.51	-47.269	114.343	
63	0.525	-268.898	-4.06071	115.004	-254.132	14.689	89.7611	-243.01	19.2561	66.1007	-225.16	12.0143	46.1897	-263.318	-41.5455	50.2799	-252.752	-36.685	21.4871	-236.443	-19.9973	3.30928	-239.96	-47.0896	45.3528	-226.897	-29.2281	24.8318	-215.053	4.65923	29.0829	-223.706	-55.9448	58.0959	-210.925	-45.7389	30.2153	-196.82	-23.6328	16.0516	-207.603	-57.845	74.5674	-190.24	-58.6531	54.3442	-180.018	-57.9117	29.4516	-240.518	-58.6862	108.082	-241.019	-58.5942	138.615	-270.178	-46.1776	112.748	
64	0.533333	-270.819	-4.6884	113.591	-256.351	17.4955	92.3467	-245.761	23.5759	61.5883	-228.982	14.8202	46.6516	-267.947	-39.4101	47.4359	-258.491	-32.535	19.2597	-245.504	-17.699	3.62176	-248.797	-44.3639	43.9044	-230.4	-24.7285	23.1556	-216.495	6.49068	28.6722	-227.142	-55.8841	53.7804	-215.64	-45.0564	29.5301	-204.036	-20.3504	13.9114	-212.893	-56.4701	70.1665	-197.392	-57.8676	50.2503	-182.472	-58.8636	30.8622	-243.752	-59.1416	106.597	-246.582	-55.5082	135.438	-273.367	-42.0779	112.883	
65	0.541667	-270.076	8.68014	116.263	-252.426	25.465	89.1188	-242.072	31.5295	69.1402	-228.642	21.5664	46.5911	-278.25	-24.3776	53.997	-266.874	-20.7382	22.7607	-249.181	-7.55368	2.53233	-258.825	-34.0872	45.006	-237.356	-20.3834	23.7226	-217.59	4.75286	25.639	-241.625	-45.6612	52.4157	-226.186	-37.9447	27.8904	-209.329	-19.071	13.3866	-223.322	-53.9103	67.1129	-207.726	-57.1993	49.6592	-201.074	-57.3763	24.758	-252.64	-49.3387	109.102	-253.572	-50.7498	134.116	-278.084	-32.0437	116.543	
66	0.55	-258.418	26.244	119.761	-237.26	38.0753	95.2393	-226.321	37.889	68.7586	-216.98	26.2248	45.983	-280.19	-0.513305	57.6644	-271.678	0.140405	26.8487	-251.278	7.3085	5.87886	-263.999	-19.9837	47.3054	-248.153	-10.9669	24.4919	-214.901	8.90006	25.0173	-251.215	-34.9173	53.8168	-235.478	-33.5902	28.8688	-218.274	-18.1429	13.9225	-237.328	-47.8933	71.7365	-228.024	-51.263	47.7325	-215.414	-55.4294	24.3627	-263.218	-35.6247	110.539	-260.488	-35.6259	135.697	-280.67	-10.3146	120.192	
